<svg width="100%" viewBox="0 0 70 70" fill="none" xmlns="http://www.w3.org/2000/svg" style="--color-main:#3CADFF; --color-secondary:#FFFFFF; max-width: 100%; max-height: 100%;"><path d="M64.6133 36.2521L67.209 36.2189" stroke="var(--color-main)" stroke-miterlimit="10" stroke-linecap="round" stroke-linejoin="round"></path><path d="M66.2841 34.1067L65.3433 34.1854" stroke="var(--color-main)" stroke-miterlimit="10" stroke-linecap="round" stroke-linejoin="round"></path><path d="M65.9353 32.0096L65.2354 32.1185" stroke="var(--color-main)" stroke-miterlimit="10" stroke-linecap="round" stroke-linejoin="round"></path><path d="M57.7207 15.2453L57.2163 15.7543" stroke="var(--color-main)" stroke-miterlimit="10" stroke-linecap="round" stroke-linejoin="round"></path><path d="M65.4307 29.9574L64.9702 30.0632" stroke="var(--color-main)" stroke-miterlimit="10" stroke-linecap="round" stroke-linejoin="round"></path><path d="M65.9754 27.5861L63.3979 28.376" stroke="var(--color-main)" stroke-miterlimit="10" stroke-linecap="round" stroke-linejoin="round"></path><path d="M66.5731 25.0198L61.4946 26.9825" stroke="var(--color-main)" stroke-miterlimit="10" stroke-linecap="round" stroke-linejoin="round"></path><path d="M68.6054 21.5474L57.8833 26.5944" stroke="var(--color-main)" stroke-miterlimit="10" stroke-linecap="round" stroke-linejoin="round"></path><path d="M64.2992 21.0976L60.3652 23.3019" stroke="var(--color-main)" stroke-miterlimit="10" stroke-linecap="round" stroke-linejoin="round"></path><path d="M62.2773 19.748L60.2905 21.0528" stroke="var(--color-main)" stroke-miterlimit="10" stroke-linecap="round" stroke-linejoin="round"></path><path d="M61.9271 17.3039L58.3291 20.0452" stroke="var(--color-main)" stroke-miterlimit="10" stroke-linecap="round" stroke-linejoin="round"></path><path d="M59.3861 16.5734L58.311 17.5175" stroke="var(--color-main)" stroke-miterlimit="10" stroke-linecap="round" stroke-linejoin="round"></path><path d="M56.453 13.5187L55.5151 14.6056" stroke="var(--color-main)" stroke-miterlimit="10" stroke-linecap="round" stroke-linejoin="round"></path><path d="M55.7015 11.006L53.1147 14.458" stroke="var(--color-main)" stroke-miterlimit="10" stroke-linecap="round" stroke-linejoin="round"></path><path d="M41.5347 6.27618L41.3179 7.60088" stroke="var(--color-main)" stroke-miterlimit="10" stroke-linecap="round" stroke-linejoin="round"></path><path d="M39.528 5.3208L39.2749 7.99469" stroke="var(--color-main)" stroke-miterlimit="10" stroke-linecap="round" stroke-linejoin="round"></path><path d="M37.3569 6.76018L37.3683 6.31262" stroke="var(--color-main)" stroke-miterlimit="10" stroke-linecap="round" stroke-linejoin="round"></path><path d="M54.8982 8.18909L50.5952 14.8392" stroke="var(--color-main)" stroke-miterlimit="10" stroke-linecap="round" stroke-linejoin="round"></path><path d="M51.7604 9.0545L50.2471 11.7886" stroke="var(--color-main)" stroke-miterlimit="10" stroke-linecap="round" stroke-linejoin="round"></path><path d="M49.5016 8.79321L48.8906 10.1019" stroke="var(--color-main)" stroke-miterlimit="10" stroke-linecap="round" stroke-linejoin="round"></path><path d="M47.45 8.28119L47.1899 8.9558" stroke="var(--color-main)" stroke-miterlimit="10" stroke-linecap="round" stroke-linejoin="round"></path><path d="M35.2661 5.203L35.3724 7.88722" stroke="var(--color-main)" stroke-miterlimit="10" stroke-linecap="round" stroke-linejoin="round"></path><path d="M32.8525 2.69672L33.7126 10.7077" stroke="var(--color-main)" stroke-miterlimit="10" stroke-linecap="round" stroke-linejoin="round"></path><path d="M30.4209 2.24683L32.1031 11.7631" stroke="var(--color-main)" stroke-miterlimit="10" stroke-linecap="round" stroke-linejoin="round"></path><path d="M27.6641 1.00012L30.8638 13.8875" stroke="var(--color-main)" stroke-miterlimit="10" stroke-linecap="round" stroke-linejoin="round"></path><path d="M25.8232 3.44427L28.7852 12.627" stroke="var(--color-main)" stroke-miterlimit="10" stroke-linecap="round" stroke-linejoin="round"></path><path d="M26.6569 11.9308L24.1196 5.59283" stroke="var(--color-main)" stroke-miterlimit="10" stroke-linecap="round" stroke-linejoin="round"></path><path d="M46.0375 5.83704L44.7573 9.98669" stroke="var(--color-main)" stroke-miterlimit="10" stroke-linecap="round" stroke-linejoin="round"></path><path d="M43.6486 6.41541L43.207 8.29597" stroke="var(--color-main)" stroke-miterlimit="10" stroke-linecap="round" stroke-linejoin="round"></path><path d="M24.5918 11.8287L22.4614 7.41364" stroke="var(--color-main)" stroke-miterlimit="10" stroke-linecap="round" stroke-linejoin="round"></path><path d="M22.522 12.0071L20.9346 9.22375" stroke="var(--color-main)" stroke-miterlimit="10" stroke-linecap="round" stroke-linejoin="round"></path><path d="M19.7993 11.4302L20.1981 12.0295" stroke="var(--color-main)" stroke-miterlimit="10" stroke-linecap="round" stroke-linejoin="round"></path><path d="M7.78467 25.9538L10.0034 26.7776" stroke="var(--color-main)" stroke-miterlimit="10" stroke-linecap="round" stroke-linejoin="round"></path><path d="M18.2095 12.7819L18.5017 13.1616" stroke="var(--color-main)" stroke-miterlimit="10" stroke-linecap="round" stroke-linejoin="round"></path><path d="M25.5216 64.1522L25.2529 64.8233" stroke="var(--color-main)" stroke-miterlimit="10" stroke-linecap="round" stroke-linejoin="round"></path><path d="M24.2062 62.2158L22.8467 65.0334" stroke="var(--color-main)" stroke-miterlimit="10" stroke-linecap="round" stroke-linejoin="round"></path><path d="M20.1981 61.2197L19.7993 61.819" stroke="var(--color-main)" stroke-miterlimit="10" stroke-linecap="round" stroke-linejoin="round"></path><path d="M15.8867 13.2981L17.6944 15.3395" stroke="var(--color-main)" stroke-miterlimit="10" stroke-linecap="round" stroke-linejoin="round"></path><path d="M13.3735 13.855L17.2894 17.7058" stroke="var(--color-main)" stroke-miterlimit="10" stroke-linecap="round" stroke-linejoin="round"></path><path d="M12.7876 16.3292L15.1424 18.3439" stroke="var(--color-main)" stroke-miterlimit="10" stroke-linecap="round" stroke-linejoin="round"></path><path d="M10.897 17.6466L14.5292 20.3401" stroke="var(--color-main)" stroke-miterlimit="10" stroke-linecap="round" stroke-linejoin="round"></path><path d="M8.26758 18.6191L14.8776 22.8378" stroke="var(--color-main)" stroke-miterlimit="10" stroke-linecap="round" stroke-linejoin="round"></path><path d="M7.52979 20.9005L13.5762 24.185" stroke="var(--color-main)" stroke-miterlimit="10" stroke-linecap="round" stroke-linejoin="round"></path><path d="M7.18115 23.2975L12.1423 25.5533" stroke="var(--color-main)" stroke-miterlimit="10" stroke-linecap="round" stroke-linejoin="round"></path><path d="M4.98096 27.3976L11.5627 29.3192" stroke="var(--color-main)" stroke-miterlimit="10" stroke-linecap="round" stroke-linejoin="round"></path><path d="M41.5347 66.9743L41.3179 65.6496" stroke="var(--color-main)" stroke-miterlimit="10" stroke-linecap="round" stroke-linejoin="round"></path><path d="M43.7339 67.199L43.1206 64.5871" stroke="var(--color-main)" stroke-miterlimit="10" stroke-linecap="round" stroke-linejoin="round"></path><path d="M45.3315 65.1226L45.4633 65.5495" stroke="var(--color-main)" stroke-miterlimit="10" stroke-linecap="round" stroke-linejoin="round"></path><path d="M26.083 69.001L28.5266 61.4253" stroke="var(--color-main)" stroke-miterlimit="10" stroke-linecap="round" stroke-linejoin="round"></path><path d="M30.9883 67.7891L31.535 64.6963" stroke="var(--color-main)" stroke-miterlimit="10" stroke-linecap="round" stroke-linejoin="round"></path><path d="M33.2056 67.2694L33.3604 65.8274" stroke="var(--color-main)" stroke-miterlimit="10" stroke-linecap="round" stroke-linejoin="round"></path><path d="M35.3057 67.0662L35.3337 66.3415" stroke="var(--color-main)" stroke-miterlimit="10" stroke-linecap="round" stroke-linejoin="round"></path><path d="M47.8022 65.8818L46.8389 63.3832" stroke="var(--color-main)" stroke-miterlimit="10" stroke-linecap="round" stroke-linejoin="round"></path><path d="M50.8928 67.4361L47.4985 60.1657" stroke="var(--color-main)" stroke-miterlimit="10" stroke-linecap="round" stroke-linejoin="round"></path><path d="M53.3323 67.0338L48.6758 58.6212" stroke="var(--color-main)" stroke-miterlimit="10" stroke-linecap="round" stroke-linejoin="round"></path><path d="M56.3318 67.2777L49.1602 56.1942" stroke="var(--color-main)" stroke-miterlimit="10" stroke-linecap="round" stroke-linejoin="round"></path><path d="M57.282 64.3538L51.5337 56.6826" stroke="var(--color-main)" stroke-miterlimit="10" stroke-linecap="round" stroke-linejoin="round"></path><path d="M53.7695 56.6205L58.1981 61.7529" stroke="var(--color-main)" stroke-miterlimit="10" stroke-linecap="round" stroke-linejoin="round"></path><path d="M37.4215 68.8881L37.3032 64.5378" stroke="var(--color-main)" stroke-miterlimit="10" stroke-linecap="round" stroke-linejoin="round"></path><path d="M39.4932 67.5534L39.311 65.6282" stroke="var(--color-main)" stroke-miterlimit="10" stroke-linecap="round" stroke-linejoin="round"></path><path d="M55.7559 56.0207L59.181 59.4766" stroke="var(--color-main)" stroke-miterlimit="10" stroke-linecap="round" stroke-linejoin="round"></path><path d="M57.6533 55.1553L60.0424 57.2533" stroke="var(--color-main)" stroke-miterlimit="10" stroke-linecap="round" stroke-linejoin="round"></path><path d="M60.4123 54.7891L59.8442 54.3563" stroke="var(--color-main)" stroke-miterlimit="10" stroke-linecap="round" stroke-linejoin="round"></path><path d="M61.4828 52.9785L61.0854 52.7175" stroke="var(--color-main)" stroke-miterlimit="10" stroke-linecap="round" stroke-linejoin="round"></path><path d="M63.5117 51.7138L61.1514 50.3912" stroke="var(--color-main)" stroke-miterlimit="10" stroke-linecap="round" stroke-linejoin="round"></path><path d="M65.71 50.3393L60.7778 48.0177" stroke="var(--color-main)" stroke-miterlimit="10" stroke-linecap="round" stroke-linejoin="round"></path><path d="M65.4686 47.8032L62.5981 46.6939" stroke="var(--color-main)" stroke-miterlimit="10" stroke-linecap="round" stroke-linejoin="round"></path><path d="M66.8339 45.9239L62.5381 44.6075" stroke="var(--color-main)" stroke-miterlimit="10" stroke-linecap="round" stroke-linejoin="round"></path><path d="M69.0004 44.1126L61.4014 42.3668" stroke="var(--color-main)" stroke-miterlimit="10" stroke-linecap="round" stroke-linejoin="round"></path><path d="M68.9683 41.7104L62.2021 40.6573" stroke="var(--color-main)" stroke-miterlimit="10" stroke-linecap="round" stroke-linejoin="round"></path><path d="M68.5182 39.3316L63.1084 38.8794" stroke="var(--color-main)" stroke-miterlimit="10" stroke-linecap="round" stroke-linejoin="round"></path><path d="M3.15771 29.3919L12.3947 31.3851" stroke="var(--color-main)" stroke-miterlimit="10" stroke-linecap="round" stroke-linejoin="round"></path><path d="M7.93164 44.9904L8.61251 44.7917" stroke="var(--color-main)" stroke-miterlimit="10" stroke-linecap="round" stroke-linejoin="round"></path><path d="M8.22852 47.1303L9.55972 46.636" stroke="var(--color-main)" stroke-miterlimit="10" stroke-linecap="round" stroke-linejoin="round"></path><path d="M9.76991 48.7739L9.5542 48.872" stroke="var(--color-main)" stroke-miterlimit="10" stroke-linecap="round" stroke-linejoin="round"></path><path d="M29.291 65.6903L29.2349 65.9246" stroke="var(--color-main)" stroke-miterlimit="10" stroke-linecap="round" stroke-linejoin="round"></path><path d="M21.3711 63.2605L22.0855 62.008" stroke="var(--color-main)" stroke-miterlimit="10" stroke-linecap="round" stroke-linejoin="round"></path><path d="M18.4288 60.1829L18.2827 60.3727" stroke="var(--color-main)" stroke-miterlimit="10" stroke-linecap="round" stroke-linejoin="round"></path><path d="M1.00049 31.537L13.8569 33.3642" stroke="var(--color-main)" stroke-miterlimit="10" stroke-linecap="round" stroke-linejoin="round"></path><path d="M3.80566 34.2931L10.6333 34.7735" stroke="var(--color-main)" stroke-miterlimit="10" stroke-linecap="round" stroke-linejoin="round"></path><path d="M5.01807 36.6259H9.2659" stroke="var(--color-main)" stroke-miterlimit="10" stroke-linecap="round" stroke-linejoin="round"></path><path d="M6.27783 38.7827L8.16131 38.6502" stroke="var(--color-main)" stroke-miterlimit="10" stroke-linecap="round" stroke-linejoin="round"></path><path d="M9.92773 51.0472L11.1787 50.3676" stroke="var(--color-main)" stroke-miterlimit="10" stroke-linecap="round" stroke-linejoin="round"></path><path d="M9.77051 53.6713L13.376 51.3701" stroke="var(--color-main)" stroke-miterlimit="10" stroke-linecap="round" stroke-linejoin="round"></path><path d="M12.0449 54.7531L13.3831 53.7608" stroke="var(--color-main)" stroke-miterlimit="10" stroke-linecap="round" stroke-linejoin="round"></path><path d="M12.7876 56.9193L15.1424 54.9047" stroke="var(--color-main)" stroke-miterlimit="10" stroke-linecap="round" stroke-linejoin="round"></path><path d="M14.8208 57.9678L15.8423 56.9633" stroke="var(--color-main)" stroke-miterlimit="10" stroke-linecap="round" stroke-linejoin="round"></path><path d="M16.5527 59.1992L17.0284 58.662" stroke="var(--color-main)" stroke-miterlimit="10" stroke-linecap="round" stroke-linejoin="round"></path><path d="M5.32471 41.0968L9.53227 40.4988" stroke="var(--color-main)" stroke-miterlimit="10" stroke-linecap="round" stroke-linejoin="round"></path><path d="M6.85205 43.0589L8.69947 42.6602" stroke="var(--color-main)" stroke-miterlimit="10" stroke-linecap="round" stroke-linejoin="round"></path></svg>