<svg width="156" height="52" viewBox="0 0 156 52" fill="none" xmlns="http://www.w3.org/2000/svg" style="--color-main:#3CADFF; --color-secondary:#FFFFFF; max-width: 100%; max-height: 100%;"><path d="M6.44417 27.0743C9.88847 27.9607 9.07917 26.8494 12.9153 26.4396C16.7516 26.0298 16.4092 27.1849 23.0963 28.1284C29.7832 29.0719 28.924 27.101 33.751 26.4396C38.5785 25.7782 36.4328 30.2365 41.0739 30.2365C45.7148 30.2365 45.7927 27.0743 50.3235 27.0743C54.8543 27.0743 56.2779 39.5971 64.6254 38.768C72.9729 37.9389 73.4411 27.3202 79.4826 27.3202C85.5241 27.3202 88.1336 34.4527 94.6473 33.7341C101.162 33.0155 103.709 28.4639 110.223 28.4639C116.737 28.4639 117.422 39.376 125.234 39.376C133.046 39.376 134.585 34.7881 139.536 30.8846C144.487 26.981 153 26.188 153 26.188C153 26.188 144.487 25.3951 139.536 21.4916C134.585 17.5879 133.046 13 125.234 13C117.422 13 116.737 23.9122 110.223 23.9122C103.709 23.9122 101.162 19.3606 94.6473 18.6419C88.1336 17.9234 85.5241 25.0559 79.4826 25.0559C73.4411 25.0559 72.9729 14.4372 64.6254 13.6081C56.2779 12.7789 54.8543 25.3017 50.3235 25.3017C45.7927 25.3017 45.7148 22.1395 41.0739 22.1395C36.4328 22.1395 38.5785 26.5978 33.751 25.9364C28.924 25.275 29.7832 23.3041 23.0963 24.2476C16.4092 25.1912 16.7516 26.3462 12.9153 25.9364C9.07917 25.5266 9.88847 24.4154 6.44417 25.3017C3.05396 26.1742 3.00015 26.188 3.00015 26.188C3.00015 26.188 3.05396 26.2019 6.44417 27.0743Z" stroke="url(#paint0_linear_2524_342426)" stroke-width="2" stroke-linecap="round" stroke-linejoin="round"></path><path d="M149.556 25.3017C146.112 24.4154 146.921 25.5266 143.085 25.9364C139.248 26.3462 139.591 25.1912 132.904 24.2476C126.217 23.3041 127.076 25.275 122.249 25.9364C117.422 26.5978 119.567 22.1395 114.926 22.1395C110.285 22.1395 110.207 25.3017 105.676 25.3017C101.146 25.3017 99.7222 12.7789 91.3747 13.6081C83.0271 14.4372 82.5589 25.0558 76.5174 25.0558C70.4759 25.0558 67.8664 17.9233 61.3527 18.6419C54.8385 19.3605 52.2909 23.9122 45.7769 23.9122C39.263 23.9122 38.5778 13 30.7658 13C22.9536 13 21.4145 17.5879 16.4642 21.4915C11.5134 25.395 3 26.188 3 26.188C3 26.188 11.5134 26.9809 16.4642 30.8845C21.4145 34.7881 22.9535 39.376 30.7658 39.376C38.5778 39.376 39.263 28.4638 45.7769 28.4638C52.2909 28.4638 54.8384 33.0154 61.3527 33.7341C67.8664 34.4526 70.4759 27.3202 76.5174 27.3202C82.5589 27.3202 83.0271 37.9388 91.3746 38.768C99.7221 39.5971 101.146 27.0743 105.676 27.0743C110.207 27.0743 110.285 30.2365 114.926 30.2365C119.567 30.2365 117.422 25.7782 122.249 26.4396C127.076 27.101 126.217 29.0719 132.904 28.1284C139.591 27.1849 139.248 26.0298 143.085 26.4396C146.921 26.8494 146.112 27.9607 149.556 27.0743C152.946 26.2019 152.999 26.1882 153 26.188C152.999 26.1878 152.946 26.1741 149.556 25.3017Z" stroke="url(#paint1_linear_2524_342426)" stroke-width="2" stroke-linecap="round" stroke-linejoin="round"></path><defs><linearGradient id="paint0_linear_2524_342426" x1="78.0001" y1="39.376" x2="78.0001" y2="13" gradientUnits="userSpaceOnUse"><stop stop-color="var(--color-main)"></stop><stop offset="1" stop-color="var(--color-main)" stop-opacity="0.4"></stop></linearGradient><linearGradient id="paint1_linear_2524_342426" x1="77.9999" y1="13" x2="77.9999" y2="39.376" gradientUnits="userSpaceOnUse"><stop stop-color="var(--color-main)"></stop><stop offset="1" stop-color="var(--color-main)" stop-opacity="0.4"></stop></linearGradient></defs></svg>