<svg width="100%" viewBox="0 0 70 70" fill="none" xmlns="http://www.w3.org/2000/svg" style="--color-main:#3CADFF; --color-secondary:#172B36; max-width: 100%; max-height: 100%;"><path d="M40.8312 11.7355C40.0936 11.7743 39.3365 11.8714 38.5989 11.8714C37.6865 11.8714 36.7547 11.9102 35.9006 11.6967C35.1824 11.5219 34.4253 11.4637 33.7071 11.289C32.62 11.0367 31.7077 10.5125 30.873 9.91078C29.7277 9.07607 28.563 9.03725 27.2624 9.30901C25.7483 9.6196 24.7195 10.629 23.943 11.8519C22.9724 13.3855 21.6913 14.5696 20.1383 15.4625C19.5171 15.8119 18.8377 16.1225 18.1583 16.3166C17.5177 16.5108 16.916 16.7437 16.3724 17.1125C15.6542 17.5978 15.266 18.316 15.0525 19.1507C14.9748 19.4419 14.8195 19.7331 14.7225 20.0243C14.2372 21.3637 13.4413 22.5284 12.7425 23.7707C12.3542 24.4307 12.1213 25.1878 11.8107 25.8866C11.4225 26.7213 11.073 27.5754 10.646 28.4101C10.1413 29.4001 9.38423 30.2542 9.15129 31.3801C9.01541 32.0595 8.82129 32.7778 8.82129 33.4572C8.8407 35.0489 8.87952 36.6407 9.07364 38.2131C9.22894 39.4166 9.61717 40.6007 9.92776 41.8042C10.0636 42.3672 10.2189 42.9107 10.413 43.4542C10.6266 44.0366 10.8789 44.5995 11.1313 45.143C11.5389 45.9972 11.9466 46.8513 12.5289 47.6277C13.2277 48.5401 14.1983 49.1224 15.2077 49.6077C16.5472 50.2483 17.4789 51.2577 18.003 52.636C18.566 54.1112 19.556 55.1401 21.0701 55.6448C21.7883 55.8777 22.4677 56.2077 23.2054 56.363C24.7971 56.6736 26.1365 57.4695 27.4371 58.4012C28.3689 59.0806 29.4365 59.5854 30.6789 59.4301C31.4165 59.333 32.1736 59.2359 32.9112 59.1389C33.9983 59.003 35.0465 59.0224 36.1142 59.3136C36.7159 59.4883 37.3371 59.5271 37.9583 59.6242C38.3465 59.6824 38.7347 59.7601 39.123 59.7601C40.1906 59.7989 41.0447 59.333 41.6853 58.4983C42.8112 57.0812 43.84 55.6059 45.1406 54.3442C45.9365 53.5677 46.81 52.8495 47.8582 52.403C48.2077 52.2477 48.5959 52.2089 48.9647 52.1118C49.0035 52.0924 49.0812 52.1313 49.1006 52.1118C49.5082 51.6848 50.0324 51.8595 50.5176 51.8207C50.6729 51.8013 50.8088 51.7624 50.9447 51.7236C51.1971 51.6654 51.4494 51.5683 51.7212 51.5295C52.1094 51.4907 52.4782 51.4324 52.8471 51.316C53.2353 51.1995 53.6623 51.1801 54.0506 51.0248C55.2735 50.5589 56.3217 49.8601 56.9041 48.6371C57.1953 48.016 57.4476 47.3754 57.2147 46.6572C56.9817 45.9583 56.7682 45.2595 56.5935 44.5413C56.4965 44.2113 56.4965 43.8425 56.4382 43.493C56.2829 42.4254 56.7294 41.5519 57.4088 40.7754C58.127 39.9601 58.8647 39.1642 59.5829 38.3489C60.3982 37.4172 60.9417 36.3689 61.1553 35.1072C61.3688 33.8648 61.2329 32.6807 61.1164 31.4772C61.0194 30.526 61 29.5554 60.8253 28.6237C60.7088 27.9443 60.5535 27.2648 60.3982 26.5854C60.01 25.0325 58.9812 23.9454 57.9717 22.8196C57.4865 22.276 56.9041 21.7713 56.3217 21.3055C55.0406 20.2766 54.1476 18.976 53.6623 17.4231C52.9247 15.0549 51.4106 13.4437 49.1006 12.5702C48.3824 12.2984 47.703 11.949 46.9653 11.8131C45.8977 11.6384 44.83 11.3861 43.7235 11.4831C42.9859 11.5414 42.2094 11.4443 41.4912 11.7355C41.3165 11.7937 41.103 11.7549 40.9089 11.7549" stroke="var(--color-main)" stroke-miterlimit="10" stroke-linecap="round" stroke-linejoin="round"></path><path d="M68.9978 36.2524C68.9395 36.4854 68.9395 36.7571 68.7842 36.9124C68.3766 37.3977 67.9689 37.883 67.4836 38.2713C66.416 39.0866 65.2707 39.8048 64.2031 40.6201C63.679 41.0083 63.2325 41.4936 62.8054 41.9789C62.2619 42.6001 62.2813 43.396 62.3978 44.153C62.5919 45.4924 62.9801 46.8124 62.9219 48.1712C62.8831 49.2777 62.9995 50.3842 62.6113 51.4712C62.456 51.8983 62.4172 52.3836 62.1648 52.7718C61.6019 53.6065 60.7866 53.9753 59.8354 54.1889C58.6319 54.4606 57.4284 54.5771 56.2054 54.7518C55.1378 54.8877 54.0507 54.8489 53.0025 55.0236C51.8378 55.2177 50.6925 55.4894 49.5666 55.8C49.1978 55.8971 48.8678 56.1883 48.5378 56.4212C47.1596 57.3918 46.1113 58.6147 45.3737 60.1483C44.869 61.1965 44.5002 62.303 43.7431 63.2153C43.3549 63.7006 42.9084 64.1277 42.3261 64.3024C41.9378 64.4188 41.4914 64.4188 41.0643 64.4188C40.2296 64.4188 39.4725 64.1083 38.6767 63.9141C37.7061 63.6618 36.7743 63.2153 35.7261 63.293C35.1631 63.3318 34.639 63.4677 34.2314 63.8559C33.6879 64.3412 33.2026 64.9041 32.6784 65.3894C32.4067 65.6612 32.0961 65.9524 31.7467 66.0688C31.4167 66.1659 30.9508 66.1465 30.6596 66.0106C29.8249 65.603 29.029 65.0982 28.2332 64.6324C27.3402 64.1082 26.4667 63.5647 25.5543 63.0988C24.6226 62.6136 23.8655 61.9147 23.0502 61.2936C22.2544 60.7112 21.4196 60.2841 20.4297 60.1289C19.6338 59.993 18.8573 59.7212 18.042 59.6241C17.3044 59.5271 16.6055 59.3136 15.9067 59.0806C14.8003 58.6924 13.9267 57.9936 13.1891 57.1006C12.9367 56.7706 12.6456 56.4794 12.4126 56.13C11.7332 55.0624 10.7044 54.4024 9.65615 53.7424C7.7538 52.5971 6.06498 51.1995 4.64793 49.4524C3.85205 48.4624 2.99793 47.5112 2.39617 46.3854C1.98852 45.6283 1.52264 44.8712 1.30911 44.056C1.09558 43.2212 1.15382 42.3283 1.07617 41.4548" stroke="var(--color-main)" stroke-miterlimit="10" stroke-linecap="round" stroke-linejoin="round"></path><path d="M68.9979 24.916C68.8814 24.6248 68.8038 24.3142 68.6485 24.0425C67.5226 22.2178 66.1444 20.5678 64.7467 18.9372C64.1256 18.219 63.4656 17.5007 63.1356 16.569C62.9609 16.0837 62.8638 15.5596 62.6891 15.0743C62.4173 14.2396 62.165 13.366 61.8156 12.5507C61.4079 11.5996 60.7285 10.8425 59.9326 10.1631C59.2144 9.56134 58.4185 9.1537 57.5062 8.94017C56.0309 8.62958 54.575 8.24134 53.0997 7.98899C52.0126 7.79487 50.9062 7.73664 49.7997 7.63958C48.3438 7.52311 46.888 7.42605 45.4321 7.3484C44.2868 7.29017 43.1415 7.29017 41.9962 7.29017C41.045 7.29017 40.0939 7.36782 39.1427 7.38723C38.1333 7.40664 37.1433 7.21252 36.3862 6.5137C35.8427 6.009 35.3962 5.36841 34.9303 4.78606C33.8821 3.48547 32.6203 2.45665 31.2033 1.58313C30.7956 1.33077 30.4268 0.981363 29.8833 1.00077" stroke="var(--color-main)" stroke-miterlimit="10" stroke-linecap="round" stroke-linejoin="round"></path><path d="M68.9009 41.1636C68.1826 41.8818 67.3868 42.5806 66.7268 43.3571C66.0085 44.2112 65.7562 45.3177 65.6009 46.4047C65.3291 48.3847 65.1932 50.3841 64.8826 52.3641C64.6691 53.7618 64.1062 55.0235 62.7279 55.7029C62.1068 55.9941 61.505 56.2853 60.7868 56.3629C60.1074 56.4406 59.4279 56.6735 58.7485 56.8288C58.0885 56.9647 57.4091 57.0618 56.7685 57.2365C56.1474 57.3918 55.5262 57.5859 54.9244 57.8188C54.3227 58.0518 53.7403 58.3041 53.1774 58.5953C52.3039 59.0612 51.4497 59.5465 50.615 60.0512C49.8968 60.4976 49.1786 60.9635 48.4797 61.4488C47.7421 61.9535 47.2374 62.6718 46.7327 63.39C46.0727 64.3023 45.4709 65.2729 44.5003 65.9135C43.4327 66.6512 42.2292 66.8453 40.9674 66.6706C39.8221 66.4959 38.6768 66.3406 37.5315 66.2047C36.6774 66.1076 36.0368 66.5153 35.4933 67.117C35.0274 67.6217 34.5615 68.1264 34.0762 68.6117C33.9015 68.7864 33.6686 68.8835 33.4551 69" stroke="var(--color-main)" stroke-miterlimit="10" stroke-linecap="round" stroke-linejoin="round"></path><path d="M34.6196 1.02014C35.2408 1.09779 35.7067 1.56367 36.2696 1.79661C37.0849 2.14602 37.9002 2.41778 38.7931 2.47602C40.249 2.57308 41.7049 2.67014 43.1608 2.7672C44.8302 2.86425 46.4802 3.19425 48.1108 3.54366C48.8484 3.69896 49.6055 3.89308 50.3431 4.06778C51.2166 4.28131 52.0902 4.47543 52.9637 4.70837C53.5266 4.84425 54.0896 4.99955 54.6525 5.13543C54.7107 5.15484 54.7496 5.17425 54.8078 5.17425C55.7396 5.29072 56.6907 5.40719 57.6225 5.52366C59.1949 5.71778 60.7284 5.98954 62.2425 6.47483C63.9313 7.01836 65.3095 7.93071 66.3578 9.36718C66.9013 10.1048 67.2701 10.9589 67.6001 11.8325C68.0272 12.9583 68.2213 14.1813 68.8813 15.2295C68.9978 15.4042 68.9784 15.676 69.0366 15.9089" stroke="var(--color-main)" stroke-miterlimit="10" stroke-linecap="round" stroke-linejoin="round"></path><path d="M25.2244 1.02014C23.8073 1.05897 22.8173 1.79661 22.0797 2.92249C21.5944 3.64072 21.0314 4.35896 20.7597 5.15484C20.4879 5.95072 20.1773 6.72719 20.0997 7.62012C20.0414 8.59071 19.8085 9.54189 19.5367 10.4736C19.2261 11.5025 18.4108 12.046 17.4208 12.3178C16.4308 12.5895 15.402 12.5895 14.412 12.8613C13.4026 13.1331 12.4709 13.6378 11.8497 14.5113C11.3838 15.1519 11.015 15.8895 10.7432 16.6466C10.4909 17.326 10.4326 18.1025 10.2773 18.8207C10.0832 19.7136 9.83086 20.5871 9.36498 21.4024C8.99616 22.0236 8.74381 22.703 8.37499 23.3242C7.7344 24.4501 6.76381 25.1877 5.52146 25.6148C4.55088 25.9448 3.58029 26.2748 2.74559 26.9154C2.04677 27.4589 1.42559 28.0607 1.09559 28.8954C1.03736 29.0507 1.01795 29.2254 0.998535 29.3807" stroke="var(--color-main)" stroke-miterlimit="10" stroke-linecap="round" stroke-linejoin="round"></path><path d="M1.0957 51.8595C1.34806 52.2283 1.56158 52.6359 1.87217 52.9659C3.52217 54.6936 5.28863 56.2853 7.24922 57.6636C8.80215 58.77 10.3551 59.9153 11.9663 60.9441C12.7427 61.4489 13.6551 61.7206 14.5286 62.07C15.1498 62.3418 15.771 62.6136 16.431 62.8465C16.858 63.0018 17.3045 63.0406 17.7315 63.1571C18.1004 63.2541 18.4692 63.4094 18.8574 63.5453C19.5757 63.7783 20.2939 63.9724 20.9927 64.2247C21.4974 64.3994 22.0021 64.6518 22.5068 64.8459C23.2833 65.1565 24.0403 65.4865 24.8362 65.7583C26.1368 66.2047 27.2433 66.9618 28.3303 67.7382C28.9903 68.2041 29.5921 68.7671 30.4074 68.9612" stroke="var(--color-main)" stroke-miterlimit="10" stroke-linecap="round" stroke-linejoin="round"></path><path d="M19.8474 1.11725C19.498 2.0296 19.1292 2.92254 18.7798 3.83489C18.2751 5.15489 17.8286 6.5137 17.2657 7.79488C16.7998 8.84311 16.0039 9.60017 14.8586 9.9884C14.0239 10.2796 13.228 10.6484 12.4321 10.9978C11.4616 11.4249 10.6269 12.0849 9.96686 12.9002C8.76333 14.3755 7.8898 16.0449 7.13275 17.7725C6.64745 18.9178 6.04569 20.0049 5.38569 21.0725C4.62863 22.2954 3.34746 22.9554 2.20217 23.7513C1.83335 24.0037 1.46453 24.2754 1.0957 24.5278" stroke="var(--color-main)" stroke-miterlimit="10" stroke-linecap="round" stroke-linejoin="round"></path><path d="M28.563 4.70844C28.3107 4.76667 28.0389 4.84432 27.7865 4.90256C27.6701 4.92197 27.5536 4.92197 27.4565 4.9608C26.6218 5.23256 25.7871 5.48491 24.9913 5.7955C23.7683 6.26138 22.856 7.05726 22.5648 8.39667C22.4095 9.13431 22.293 9.87196 22.0213 10.5708C21.536 11.852 20.9342 13.0555 19.5754 13.6961C18.7601 14.0843 17.9642 14.3561 17.0519 14.4919C16.0813 14.6472 15.0525 14.7249 14.2372 15.3655C13.7131 15.7925 13.3636 16.2972 13.1501 16.9572C12.8978 17.7919 12.7619 18.6266 12.6066 19.4808C12.4901 20.0825 12.2184 20.6649 11.9466 21.2278C11.5001 22.1207 10.9178 22.9555 10.5295 23.8678C10.1995 24.6054 9.86953 25.3625 9.44248 26.0419C8.95718 26.799 8.29719 27.4007 7.55954 27.886C6.6666 28.4684 5.8319 29.0701 5.38543 30.0796C5.21072 30.4678 5.05543 30.8754 5.05543 31.2831C5.01661 33.069 5.05543 34.8354 5.03602 36.6213C5.01661 37.5919 5.21072 38.5236 5.34661 39.4748C5.42425 40.096 5.65719 40.6978 5.75425 41.3189C5.89013 42.1342 6.14249 42.9107 6.39484 43.6872C6.60837 44.3472 6.89954 44.9683 7.11307 45.6283C7.42366 46.5795 7.94777 47.4142 8.47189 48.2489C9.34542 49.666 10.5684 50.5977 12.0631 51.2577C13.0531 51.7042 14.1207 52.073 14.7807 53.0436C15.1107 53.5289 15.4019 54.053 15.596 54.5965C16.0619 55.8583 16.916 56.7124 18.1777 57.1589C18.9154 57.4112 19.653 57.6442 20.4489 57.7218C21.0895 57.7801 21.7107 58.1101 22.3513 58.2071C23.1666 58.343 23.8654 58.7118 24.5254 59.1583C25.1271 59.5854 25.6513 60.1095 26.1754 60.5948C27.1654 61.5265 28.3495 62.0895 29.6695 62.3806C30.5624 62.5748 31.3971 62.3418 32.1348 61.8953C33.2412 61.2353 34.4059 60.9636 35.6871 61.1383C36.3665 61.2353 37.0265 61.4683 37.6865 61.643C38.5795 61.8759 39.4336 62.2642 40.3847 62.2642C41.3359 62.2642 42.0542 61.8759 42.5783 61.0995C43.083 60.3424 43.4324 59.5271 43.8594 58.7312C44.6165 57.2948 45.5871 55.9554 46.8877 54.946C47.47 54.4995 48.0718 54.0724 48.7318 53.7424C49.1977 53.5095 49.7606 53.4707 50.2653 53.393C50.7506 53.3154 51.2359 53.2571 51.7212 53.1989C51.8571 53.1795 51.9735 53.1601 52.1094 53.1601C53.2547 53.1601 54.3806 53.1407 55.5065 52.8883C56.5159 52.6748 57.5059 52.4613 58.457 52.0342C59.4859 51.5683 60.0294 50.7336 60.34 49.7048C60.8447 48.0354 60.5147 46.5019 59.7188 45.0072C59.3112 44.2501 58.9812 43.4154 59.1559 42.5419C59.2529 42.0954 59.4859 41.6489 59.777 41.2801C60.5923 40.2513 61.6212 39.4748 62.6112 38.6401C63.4847 37.9219 64.3388 37.1648 64.7464 36.0778C64.96 35.476 65.2123 34.8742 65.1541 34.1948C65.0959 33.3989 65.1153 32.5837 65.1541 31.7684C65.1929 31.0307 65.3482 30.3125 65.3676 29.5943C65.387 28.8954 65.3676 28.1966 65.2123 27.5172C64.727 25.3043 63.1935 23.7707 61.7376 22.179C61.1359 21.5384 60.4953 20.9366 59.8547 20.3349C59.1753 19.6943 58.6123 18.9566 58.2241 18.1025C58.03 17.6561 57.9718 17.1319 57.8747 16.6466C57.7582 16.1419 57.6806 15.6372 57.5253 15.1519C57.0982 13.8319 56.2829 12.7643 55.1571 11.949C54.4 11.4055 53.5847 10.9784 52.6918 10.7261C52.1288 10.5708 51.5659 10.3767 51.003 10.2408C50.3235 10.0855 49.6247 9.98843 48.9259 9.89137C48.2271 9.79431 47.5477 9.67784 46.8488 9.65843C45.3541 9.6196 43.8594 9.52255 42.4036 9.67784C41.1418 9.83313 39.88 10.0273 38.6183 10.1631C38.1718 10.202 37.7059 10.0855 37.2595 10.0272C36.8712 9.98842 36.4636 9.98843 36.0948 9.87196C35.1436 9.58078 34.2118 9.25078 33.6683 8.33843C33.2607 7.63961 32.9112 6.88256 32.4454 6.22256C31.7271 5.17432 30.6983 4.66962 29.3977 4.70844C29.1648 4.70844 28.9124 4.70844 28.6795 4.70844" stroke="var(--color-main)" stroke-miterlimit="10" stroke-linecap="round" stroke-linejoin="round"></path><path d="M28.4274 12.706C27.6898 12.9195 26.9327 13.036 26.2921 13.4825C25.3798 14.1036 24.4868 14.7442 23.5745 15.3654C22.371 16.2001 21.1868 17.1125 19.9251 17.8695C18.4498 18.743 17.4792 20.0048 16.6445 21.4219C16.0621 22.3924 15.4798 23.363 14.8974 24.3336C14.3539 25.2654 13.9463 26.236 13.6745 27.2842C13.558 27.7307 13.3833 28.1577 13.2475 28.6042C12.898 29.8077 12.4516 30.9724 12.3739 32.2342C12.3157 33.0495 12.1992 33.8842 12.1992 34.6995C12.1992 36.1165 12.3933 37.5142 12.6651 38.9118C13.0727 41.0277 13.8104 43.0077 14.8004 44.9294C15.441 46.1718 16.3727 47.1424 17.518 47.9383C18.7604 48.8118 19.6727 49.9959 20.488 51.2771C21.2451 52.4612 22.2933 53.3347 23.5745 53.8976C24.3898 54.2471 25.2245 54.5771 26.0398 54.9265C27.1656 55.3923 28.2915 55.8776 29.4368 56.2659C30.1356 56.4988 30.8733 56.6541 31.6109 56.6929C33.5909 56.8094 35.5903 56.8288 37.5703 56.9065C39.1427 56.9841 40.4239 56.3435 41.5886 55.3924C42.928 54.2859 44.1897 53.1018 45.5291 52.0147C46.1891 51.4906 46.9656 51.0247 47.7615 50.7141C48.5962 50.4035 49.4697 50.1318 50.3238 49.8794C51.3332 49.5883 52.1874 49.103 52.8862 48.3653C53.6432 47.55 53.8762 46.5212 53.9538 45.4536C53.9732 45.1818 53.9732 44.91 53.9538 44.6383C53.8373 42.9494 54.4003 41.4936 55.4097 40.1736C55.9338 39.4747 56.4385 38.7371 56.9044 37.9995C57.545 36.99 57.7973 35.8448 57.8167 34.6606C57.8362 33.7871 57.8362 32.9136 57.7197 32.0401C57.4673 30.2736 57.0985 28.5265 56.555 26.7989C55.9338 24.8189 54.7497 23.2854 53.3132 21.8683C52.1291 20.6842 51.1585 19.3642 50.2074 17.986C48.965 16.2001 47.2956 14.9578 45.2768 14.1425C43.9956 13.6378 42.695 13.5989 41.3556 13.6378C40.2103 13.6766 39.0456 13.8319 37.9197 13.4242C37.7839 13.3854 37.6286 13.3854 37.4927 13.366C36.8521 13.3078 36.1921 13.2689 35.5515 13.2301C34.6974 13.1719 33.8433 13.1331 32.9892 13.0748C32.6398 13.0554 32.3098 12.9778 31.9798 12.9389C31.8245 12.9195 31.6886 12.8613 31.5527 12.8419C30.5433 12.7836 29.5145 12.7448 28.5051 12.6866" stroke="var(--color-main)" stroke-miterlimit="10" stroke-linecap="round" stroke-linejoin="round"></path><path d="M32.5037 14.9772C31.9796 15.0743 31.4361 15.2296 30.9119 15.249C29.8443 15.3072 28.8543 15.6566 27.8449 16.0255C26.4084 16.5496 25.1467 17.3455 23.8655 18.1608C22.3126 19.1508 20.9732 20.3737 19.8084 21.7713C18.7796 23.0137 17.9449 24.3725 17.2073 25.8284C16.5473 27.1484 16.0426 28.5266 15.732 29.9631C15.2855 31.9819 15.0914 34.0007 15.2855 36.0778C15.4214 37.6307 15.6932 39.1642 16.1785 40.6201C16.9549 42.9301 18.042 45.0654 19.8473 46.793C20.9537 47.8607 21.9437 49.0642 23.0696 50.1124C24.2537 51.2383 25.632 52.0536 27.1849 52.5971C28.1167 52.9271 29.0096 53.393 29.9608 53.626C31.0284 53.8977 32.1543 54.0336 33.2608 54.1695C35.1049 54.4024 36.9684 54.286 38.7737 53.9171C40.1713 53.626 41.4719 53.0048 42.656 52.1895C44.0343 51.2383 45.3931 50.2483 46.8296 49.3942C47.5866 48.9477 48.4213 48.6177 49.1395 48.0548C50.1684 47.2783 50.9642 46.3272 51.3331 45.046C51.566 44.1919 51.7795 43.3377 52.1095 42.5225C52.5366 41.4936 53.0219 40.4842 53.5654 39.5136C54.2837 38.2131 54.7495 36.8348 54.866 35.3401C54.9631 34.0007 54.8272 32.6807 54.6331 31.3607C54.4584 30.2348 54.1672 29.109 53.8178 28.0219C53.0219 25.4596 51.5466 23.3049 49.7025 21.3831C49.1978 20.859 48.6931 20.3155 48.2078 19.7913C46.7907 18.2772 45.0825 17.1902 43.1996 16.3749C42.4425 16.0449 41.5884 15.9478 40.7925 15.7731C39.8996 15.5984 39.026 15.4237 38.1331 15.2878C37.4925 15.1908 36.8519 15.0743 36.1919 15.0549C34.9884 14.9966 33.7655 14.9772 32.5619 14.9578" stroke="var(--color-main)" stroke-miterlimit="10" stroke-linecap="round" stroke-linejoin="round"></path><path d="M34.1343 17.3066C33.9596 17.3261 33.7849 17.3261 33.6101 17.3649C32.7754 17.4813 31.9213 17.5784 31.0866 17.7143C30.7178 17.7725 30.3296 17.8696 29.9802 18.0055C29.3784 18.219 28.796 18.4908 28.1749 18.7237C27.1655 19.1119 26.2531 19.6555 25.3602 20.2378C23.9431 21.1696 22.7008 22.3343 21.6331 23.6349C20.8761 24.5666 20.2355 25.5954 19.6531 26.6437C19.2455 27.3619 19.129 28.216 18.7408 28.9537C18.3331 29.7495 18.1778 30.6037 18.0225 31.4384C17.7896 32.6419 17.7702 33.8842 17.7702 35.1072C17.7508 35.9225 17.8672 36.7572 18.0031 37.5725C18.1002 38.1742 18.3331 38.7372 18.469 39.3195C18.702 40.3289 19.0902 41.2607 19.5561 42.173C19.9831 42.9883 20.449 43.7648 21.0119 44.5025C21.6914 45.3954 22.4484 46.2301 23.2249 47.026C24.6031 48.443 26.2337 49.5495 28.0584 50.326C28.6602 50.5783 29.3007 50.7142 29.9025 50.9666C31.0478 51.4518 32.2707 51.6071 33.4937 51.7236C34.7748 51.8401 36.056 51.9177 37.3178 51.6071C37.9972 51.4324 38.7154 51.3936 39.3948 51.2577C39.7442 51.1995 40.0937 51.1024 40.4042 50.9666C42.3842 50.1124 44.1895 48.9671 45.9366 47.7248C47.2954 46.7542 48.4601 45.5895 49.2366 44.0948C49.683 43.2213 50.0519 42.3283 50.4595 41.4354C50.7119 40.8919 51.0613 40.3872 51.2166 39.8242C51.3913 39.1448 51.7213 38.5042 51.8572 37.8054C51.993 37.1066 52.1677 36.4078 52.1872 35.7089C52.2066 34.5248 52.226 33.3407 52.0901 32.176C51.9542 31.1084 51.6825 30.0601 51.3136 29.0119C50.673 27.1484 49.7995 25.4401 48.5183 23.926C47.9554 23.266 47.4313 22.5866 46.8101 22.0043C45.8201 21.0531 44.7331 20.2378 43.5295 19.5778C42.8501 19.209 42.1901 18.8013 41.4913 18.5296C40.8507 18.2772 40.1713 18.1608 39.5113 17.9861C38.7931 17.7919 38.0554 17.5978 37.3372 17.4619C36.8713 17.3843 36.4054 17.4231 35.9396 17.4037C35.3572 17.3843 34.7748 17.3649 34.1925 17.3455" stroke="var(--color-main)" stroke-miterlimit="10" stroke-linecap="round" stroke-linejoin="round"></path></svg>