<svg width="156" height="52" viewBox="0 0 156 52" fill="none" xmlns="http://www.w3.org/2000/svg" style="--color-main:#FFAC46; --color-secondary:#FFFFFF; max-width: 100%; max-height: 100%;"><path d="M3.5 21C3.5 20.1716 2.82843 19.5 2 19.5C1.17157 19.5 0.5 20.1716 0.5 21H3.5ZM0.5 31C0.5 31.8284 1.17157 32.5 2 32.5C2.82843 32.5 3.5 31.8284 3.5 31H0.5ZM0.5 21V31H3.5V21H0.5Z" fill="var(--color-main)"></path><path d="M4.60791 27.5C4.60791 28.3284 5.27948 29 6.10791 29C6.93634 29 7.60791 28.3284 7.60791 27.5H4.60791ZM7.60791 24.5C7.60791 23.6716 6.93634 23 6.10791 23C5.27948 23 4.60791 23.6716 4.60791 24.5H7.60791ZM7.60791 27.5V24.5H4.60791V27.5H7.60791Z" fill="var(--color-main)"></path><path d="M8.71631 31C8.71631 31.8284 9.38788 32.5 10.2163 32.5C11.0447 32.5 11.7163 31.8284 11.7163 31H8.71631ZM11.7163 21C11.7163 20.1716 11.0447 19.5 10.2163 19.5C9.38788 19.5 8.71631 20.1716 8.71631 21H11.7163ZM11.7163 31V21H8.71631V31H11.7163Z" fill="var(--color-main)"></path><path d="M12.8242 37.5C12.8242 38.3284 13.4958 39 14.3242 39C15.1526 39 15.8242 38.3284 15.8242 37.5H12.8242ZM15.8242 14.5C15.8242 13.6716 15.1526 13 14.3242 13C13.4958 13 12.8242 13.6716 12.8242 14.5H15.8242ZM15.8242 37.5V14.5H12.8242V37.5H15.8242Z" fill="var(--color-main)"></path><path d="M16.9326 49C16.9326 49.8284 17.6042 50.5 18.4326 50.5C19.261 50.5 19.9326 49.8284 19.9326 49H16.9326ZM19.9326 3C19.9326 2.17157 19.261 1.5 18.4326 1.5C17.6042 1.5 16.9326 2.17157 16.9326 3H19.9326ZM19.9326 49V3H16.9326V49H19.9326Z" fill="var(--color-main)"></path><path d="M21.0405 34C21.0405 34.8284 21.7121 35.5 22.5405 35.5C23.369 35.5 24.0405 34.8284 24.0405 34H21.0405ZM24.0405 18C24.0405 17.1716 23.369 16.5 22.5405 16.5C21.7121 16.5 21.0405 17.1716 21.0405 18H24.0405ZM24.0405 34V18H21.0405V34H24.0405Z" fill="var(--color-main)"></path><path d="M25.1484 31C25.1484 31.8284 25.82 32.5 26.6484 32.5C27.4769 32.5 28.1484 31.8284 28.1484 31H25.1484ZM28.1484 21C28.1484 20.1716 27.4769 19.5 26.6484 19.5C25.82 19.5 25.1484 20.1716 25.1484 21H28.1484ZM28.1484 31V21H25.1484V31H28.1484Z" fill="var(--color-main)"></path><path d="M29.2568 34C29.2568 34.8284 29.9284 35.5 30.7568 35.5C31.5853 35.5 32.2568 34.8284 32.2568 34H29.2568ZM32.2568 18C32.2568 17.1716 31.5853 16.5 30.7568 16.5C29.9284 16.5 29.2568 17.1716 29.2568 18H32.2568ZM32.2568 34V18H29.2568V34H32.2568Z" fill="var(--color-main)"></path><path d="M33.3647 29.5C33.3647 30.3284 34.0363 31 34.8647 31C35.6932 31 36.3647 30.3284 36.3647 29.5H33.3647ZM36.3647 22.5C36.3647 21.6716 35.6932 21 34.8647 21C34.0363 21 33.3647 21.6716 33.3647 22.5H36.3647ZM36.3647 29.5V22.5H33.3647V29.5H36.3647Z" fill="var(--color-main)"></path><path d="M37.4731 27.5C37.4731 28.3284 38.1447 29 38.9731 29C39.8016 29 40.4731 28.3284 40.4731 27.5H37.4731ZM40.4731 24.5C40.4731 23.6716 39.8016 23 38.9731 23C38.1447 23 37.4731 23.6716 37.4731 24.5H40.4731ZM40.4731 27.5V24.5H37.4731V27.5H40.4731Z" fill="var(--color-main)"></path><path d="M41.5811 29.5C41.5811 30.3284 42.2526 31 43.0811 31C43.9095 31 44.5811 30.3284 44.5811 29.5H41.5811ZM44.5811 22.5C44.5811 21.6716 43.9095 21 43.0811 21C42.2526 21 41.5811 21.6716 41.5811 22.5H44.5811ZM44.5811 29.5V22.5H41.5811V29.5H44.5811Z" fill="var(--color-main)"></path><path d="M45.689 34C45.689 34.8284 46.3605 35.5 47.189 35.5C48.0174 35.5 48.689 34.8284 48.689 34H45.689ZM48.689 18C48.689 17.1716 48.0174 16.5 47.189 16.5C46.3605 16.5 45.689 17.1716 45.689 18H48.689ZM48.689 34V18H45.689V34H48.689Z" fill="var(--color-main)"></path><path d="M49.7974 40.5C49.7974 41.3284 50.4689 42 51.2974 42C52.1258 42 52.7974 41.3284 52.7974 40.5H49.7974ZM52.7974 11.5C52.7974 10.6716 52.1258 10 51.2974 10C50.4689 10 49.7974 10.6716 49.7974 11.5H52.7974ZM52.7974 40.5V11.5H49.7974V40.5H52.7974Z" fill="var(--color-main)"></path><path d="M53.9053 32.5C53.9053 33.3284 54.5768 34 55.4053 34C56.2337 34 56.9053 33.3284 56.9053 32.5H53.9053ZM56.9053 19.5C56.9053 18.6716 56.2337 18 55.4053 18C54.5768 18 53.9053 18.6716 53.9053 19.5H56.9053ZM56.9053 32.5V19.5H53.9053V32.5H56.9053Z" fill="var(--color-main)"></path><path d="M58.0137 29.5C58.0137 30.3284 58.6852 31 59.5137 31C60.3421 31 61.0137 30.3284 61.0137 29.5H58.0137ZM61.0137 22.5C61.0137 21.6716 60.3421 21 59.5137 21C58.6852 21 58.0137 21.6716 58.0137 22.5H61.0137ZM61.0137 29.5V22.5H58.0137V29.5H61.0137Z" fill="var(--color-main)"></path><path d="M62.1216 27.5C62.1216 28.3284 62.7932 29 63.6216 29C64.45 29 65.1216 28.3284 65.1216 27.5H62.1216ZM65.1216 24.5C65.1216 23.6716 64.45 23 63.6216 23C62.7932 23 62.1216 23.6716 62.1216 24.5H65.1216ZM65.1216 27.5V24.5H62.1216V27.5H65.1216Z" fill="var(--color-main)"></path><path d="M66.2295 34C66.2295 34.8284 66.9011 35.5 67.7295 35.5C68.5579 35.5 69.2295 34.8284 69.2295 34H66.2295ZM69.2295 18C69.2295 17.1716 68.5579 16.5 67.7295 16.5C66.9011 16.5 66.2295 17.1716 66.2295 18H69.2295ZM69.2295 34V18H66.2295V34H69.2295Z" fill="var(--color-main)"></path><path d="M70.3379 29.5C70.3379 30.3284 71.0095 31 71.8379 31C72.6663 31 73.3379 30.3284 73.3379 29.5H70.3379ZM73.3379 22.5C73.3379 21.6716 72.6663 21 71.8379 21C71.0095 21 70.3379 21.6716 70.3379 22.5H73.3379ZM73.3379 29.5V22.5H70.3379V29.5H73.3379Z" fill="var(--color-main)"></path><path d="M74.4458 29.5C74.4458 30.3284 75.1174 31 75.9458 31C76.7742 31 77.4458 30.3284 77.4458 29.5H74.4458ZM77.4458 22.5C77.4458 21.6716 76.7742 21 75.9458 21C75.1174 21 74.4458 21.6716 74.4458 22.5H77.4458ZM77.4458 29.5V22.5H74.4458V29.5H77.4458Z" fill="var(--color-main)"></path><path d="M78.5542 31C78.5542 31.8284 79.2258 32.5 80.0542 32.5C80.8826 32.5 81.5542 31.8284 81.5542 31H78.5542ZM81.5542 21C81.5542 20.1716 80.8826 19.5 80.0542 19.5C79.2258 19.5 78.5542 20.1716 78.5542 21H81.5542ZM81.5542 31V21H78.5542V31H81.5542Z" fill="var(--color-main)"></path><path d="M85.6621 24.5C85.6621 23.6716 84.9905 23 84.1621 23C83.3337 23 82.6621 23.6716 82.6621 24.5H85.6621ZM82.6621 27.5C82.6621 28.3284 83.3337 29 84.1621 29C84.9905 29 85.6621 28.3284 85.6621 27.5H82.6621ZM82.6621 24.5V27.5H85.6621V24.5H82.6621Z" fill="var(--color-main)"></path><path d="M86.7705 31C86.7705 31.8284 87.4421 32.5 88.2705 32.5C89.0989 32.5 89.7705 31.8284 89.7705 31H86.7705ZM89.7705 21C89.7705 20.1716 89.0989 19.5 88.2705 19.5C87.4421 19.5 86.7705 20.1716 86.7705 21H89.7705ZM89.7705 31V21H86.7705V31H89.7705Z" fill="var(--color-main)"></path><path d="M90.8784 40.5C90.8784 41.3284 91.55 42 92.3784 42C93.2068 42 93.8784 41.3284 93.8784 40.5H90.8784ZM93.8784 11.5C93.8784 10.6716 93.2068 10 92.3784 10C91.55 10 90.8784 10.6716 90.8784 11.5H93.8784ZM93.8784 40.5V11.5H90.8784V40.5H93.8784Z" fill="var(--color-main)"></path><path d="M94.9863 44C94.9863 44.8284 95.6579 45.5 96.4863 45.5C97.3148 45.5 97.9863 44.8284 97.9863 44H94.9863ZM97.9863 8C97.9863 7.17157 97.3148 6.5 96.4863 6.5C95.6579 6.5 94.9863 7.17157 94.9863 8H97.9863ZM97.9863 44V8H94.9863V44H97.9863Z" fill="var(--color-main)"></path><path d="M99.0947 48C99.0947 48.8284 99.7663 49.5 100.595 49.5C101.423 49.5 102.095 48.8284 102.095 48L99.0947 48ZM102.095 4C102.095 3.17157 101.423 2.5 100.595 2.5C99.7663 2.5 99.0947 3.17157 99.0947 4L102.095 4ZM102.095 48L102.095 4L99.0947 4L99.0947 48L102.095 48Z" fill="var(--color-main)"></path><path d="M103.203 44C103.203 44.8284 103.874 45.5 104.703 45.5C105.531 45.5 106.203 44.8284 106.203 44H103.203ZM106.203 8C106.203 7.17157 105.531 6.5 104.703 6.5C103.874 6.5 103.203 7.17157 103.203 8H106.203ZM106.203 44V8H103.203V44H106.203Z" fill="var(--color-main)"></path><path d="M110.311 13C110.311 12.1716 109.639 11.5 108.811 11.5C107.983 11.5 107.311 12.1716 107.311 13H110.311ZM107.311 39C107.311 39.8284 107.983 40.5 108.811 40.5C109.639 40.5 110.311 39.8284 110.311 39H107.311ZM107.311 13V39H110.311V13H107.311Z" fill="var(--color-main)"></path><path d="M114.419 16C114.419 15.1716 113.747 14.5 112.919 14.5C112.091 14.5 111.419 15.1716 111.419 16H114.419ZM111.419 36C111.419 36.8284 112.091 37.5 112.919 37.5C113.747 37.5 114.419 36.8284 114.419 36H111.419ZM111.419 16V36H114.419V16H111.419Z" fill="var(--color-main)"></path><path d="M118.527 19.5C118.527 18.6716 117.855 18 117.027 18C116.198 18 115.527 18.6716 115.527 19.5H118.527ZM115.527 32.5C115.527 33.3284 116.198 34 117.027 34C117.855 34 118.527 33.3284 118.527 32.5H115.527ZM115.527 19.5V32.5H118.527V19.5H115.527Z" fill="var(--color-main)"></path><path d="M119.635 27.5C119.635 28.3284 120.307 29 121.135 29C121.964 29 122.635 28.3284 122.635 27.5H119.635ZM122.635 24.5C122.635 23.6716 121.964 23 121.135 23C120.307 23 119.635 23.6716 119.635 24.5H122.635ZM122.635 27.5V24.5H119.635V27.5H122.635Z" fill="var(--color-main)"></path><path d="M123.743 27.5C123.743 28.3284 124.415 29 125.243 29C126.072 29 126.743 28.3284 126.743 27.5H123.743ZM126.743 24.5C126.743 23.6716 126.072 23 125.243 23C124.415 23 123.743 23.6716 123.743 24.5H126.743ZM126.743 27.5V24.5H123.743V27.5H126.743Z" fill="var(--color-main)"></path><path d="M127.852 31C127.852 31.8284 128.523 32.5 129.352 32.5C130.18 32.5 130.852 31.8284 130.852 31H127.852ZM130.852 21C130.852 20.1716 130.18 19.5 129.352 19.5C128.523 19.5 127.852 20.1716 127.852 21H130.852ZM130.852 31V21H127.852V31H130.852Z" fill="var(--color-main)"></path><path d="M131.959 37.5C131.959 38.3284 132.631 39 133.459 39C134.288 39 134.959 38.3284 134.959 37.5H131.959ZM134.959 14.5C134.959 13.6716 134.288 13 133.459 13C132.631 13 131.959 13.6716 131.959 14.5H134.959ZM134.959 37.5V14.5H131.959V37.5H134.959Z" fill="var(--color-main)"></path><path d="M136.067 32.5C136.067 33.3284 136.739 34 137.567 34C138.396 34 139.067 33.3284 139.067 32.5H136.067ZM139.067 19.5C139.067 18.6716 138.396 18 137.567 18C136.739 18 136.067 18.6716 136.067 19.5H139.067ZM139.067 32.5V19.5H136.067V32.5H139.067Z" fill="var(--color-main)"></path><path d="M140.176 34C140.176 34.8284 140.847 35.5 141.676 35.5C142.504 35.5 143.176 34.8284 143.176 34H140.176ZM143.176 18C143.176 17.1716 142.504 16.5 141.676 16.5C140.847 16.5 140.176 17.1716 140.176 18H143.176ZM143.176 34V18H140.176V34H143.176Z" fill="var(--color-main)"></path><path d="M144.284 40.5C144.284 41.3284 144.955 42 145.784 42C146.612 42 147.284 41.3284 147.284 40.5H144.284ZM147.284 11.5C147.284 10.6716 146.612 10 145.784 10C144.955 10 144.284 10.6716 144.284 11.5H147.284ZM147.284 40.5V11.5H144.284V40.5H147.284Z" fill="var(--color-main)"></path><path d="M148.392 39C148.392 39.8284 149.064 40.5 149.892 40.5C150.721 40.5 151.392 39.8284 151.392 39H148.392ZM151.392 13C151.392 12.1716 150.721 11.5 149.892 11.5C149.064 11.5 148.392 12.1716 148.392 13H151.392ZM151.392 39V13H148.392V39H151.392Z" fill="var(--color-main)"></path><path d="M152.5 37.5C152.5 38.3284 153.172 39 154 39C154.828 39 155.5 38.3284 155.5 37.5H152.5ZM155.5 14.5C155.5 13.6716 154.828 13 154 13C153.172 13 152.5 13.6716 152.5 14.5H155.5ZM155.5 37.5V14.5H152.5V37.5H155.5Z" fill="var(--color-main)"></path></svg>