<svg width="156" height="52" viewBox="0 0 156 52" fill="none" xmlns="http://www.w3.org/2000/svg" style="--color-main:#3CADFF; --color-secondary:#FFFFFF; max-width: 100%; max-height: 100%;"><path d="M2 42V52" stroke="var(--color-main)" stroke-width="3" stroke-miterlimit="10"></path><path d="M6.10791 52V49" stroke="var(--color-main)" stroke-width="3" stroke-miterlimit="10"></path><path d="M10.2163 52V42" stroke="var(--color-main)" stroke-width="3" stroke-miterlimit="10"></path><path d="M14.3242 52V29" stroke="var(--color-main)" stroke-width="3" stroke-miterlimit="10"></path><path d="M18.4326 52V6" stroke="var(--color-main)" stroke-width="3" stroke-miterlimit="10"></path><path d="M22.5405 52V36" stroke="var(--color-main)" stroke-width="3" stroke-miterlimit="10"></path><path d="M26.6484 52V42" stroke="var(--color-main)" stroke-width="3" stroke-miterlimit="10"></path><path d="M30.7568 52V36" stroke="var(--color-main)" stroke-width="3" stroke-miterlimit="10"></path><path d="M34.8647 52V45" stroke="var(--color-main)" stroke-width="3" stroke-miterlimit="10"></path><path d="M38.9731 52V49" stroke="var(--color-main)" stroke-width="3" stroke-miterlimit="10"></path><path d="M43.0811 52V45" stroke="var(--color-main)" stroke-width="3" stroke-miterlimit="10"></path><path d="M47.189 52V36" stroke="var(--color-main)" stroke-width="3" stroke-miterlimit="10"></path><path d="M51.2974 52V23" stroke="var(--color-main)" stroke-width="3" stroke-miterlimit="10"></path><path d="M55.4053 52V39" stroke="var(--color-main)" stroke-width="3" stroke-miterlimit="10"></path><path d="M59.5137 52V45" stroke="var(--color-main)" stroke-width="3" stroke-miterlimit="10"></path><path d="M63.6216 52V49" stroke="var(--color-main)" stroke-width="3" stroke-miterlimit="10"></path><path d="M67.7295 52V36" stroke="var(--color-main)" stroke-width="3" stroke-miterlimit="10"></path><path d="M71.8379 52V45" stroke="var(--color-main)" stroke-width="3" stroke-miterlimit="10"></path><path d="M75.9458 52V45" stroke="var(--color-main)" stroke-width="3" stroke-miterlimit="10"></path><path d="M80.0542 52V42" stroke="var(--color-main)" stroke-width="3" stroke-miterlimit="10"></path><path d="M84.1621 49V52" stroke="var(--color-main)" stroke-width="3" stroke-miterlimit="10"></path><path d="M88.2705 52V42" stroke="var(--color-main)" stroke-width="3" stroke-miterlimit="10"></path><path d="M92.3784 52V23" stroke="var(--color-main)" stroke-width="3" stroke-miterlimit="10"></path><path d="M96.4863 52V16" stroke="var(--color-main)" stroke-width="3" stroke-miterlimit="10"></path><path d="M100.595 52V0" stroke="var(--color-main)" stroke-width="3" stroke-miterlimit="10"></path><path d="M104.703 52V16" stroke="var(--color-main)" stroke-width="3" stroke-miterlimit="10"></path><path d="M108.811 26V52" stroke="var(--color-main)" stroke-width="3" stroke-miterlimit="10"></path><path d="M112.919 32V52" stroke="var(--color-main)" stroke-width="3" stroke-miterlimit="10"></path><path d="M117.027 39V52" stroke="var(--color-main)" stroke-width="3" stroke-miterlimit="10"></path><path d="M121.135 52V49" stroke="var(--color-main)" stroke-width="3" stroke-miterlimit="10"></path><path d="M125.243 52V49" stroke="var(--color-main)" stroke-width="3" stroke-miterlimit="10"></path><path d="M129.352 52V42" stroke="var(--color-main)" stroke-width="3" stroke-miterlimit="10"></path><path d="M133.459 52V29" stroke="var(--color-main)" stroke-width="3" stroke-miterlimit="10"></path><path d="M137.567 52V39" stroke="var(--color-main)" stroke-width="3" stroke-miterlimit="10"></path><path d="M141.676 52V36" stroke="var(--color-main)" stroke-width="3" stroke-miterlimit="10"></path><path d="M145.784 52V23" stroke="var(--color-main)" stroke-width="3" stroke-miterlimit="10"></path><path d="M149.892 52V26" stroke="var(--color-main)" stroke-width="3" stroke-miterlimit="10"></path><path d="M154 52V29" stroke="var(--color-main)" stroke-width="3" stroke-miterlimit="10"></path></svg>