<svg width="156" height="52" viewBox="0 0 156 52" fill="none" xmlns="http://www.w3.org/2000/svg" style="--color-main:#3CADFF; --color-secondary:#FFFFFF; max-width: 100%; max-height: 100%;"><g clip-path="url(#clip0_2524_342596)"><path d="M154 31L154 21" stroke="var(--color-main)" stroke-width="3" stroke-miterlimit="10"></path><path d="M149.892 24.5L149.892 27.5" stroke="var(--color-main)" stroke-width="3" stroke-miterlimit="10"></path><path d="M145.784 21L145.784 31" stroke="var(--color-main)" stroke-width="3" stroke-miterlimit="10"></path><path d="M141.676 14.5L141.676 37.5" stroke="var(--color-main)" stroke-width="3" stroke-miterlimit="10"></path><path d="M137.567 3.00001L137.567 49" stroke="var(--color-main)" stroke-width="3" stroke-miterlimit="10"></path><path d="M133.459 18L133.459 34" stroke="var(--color-main)" stroke-width="3" stroke-miterlimit="10"></path><path d="M129.352 21L129.352 31" stroke="var(--color-main)" stroke-width="3" stroke-miterlimit="10"></path><path d="M125.243 18L125.243 34" stroke="var(--color-main)" stroke-width="3" stroke-miterlimit="10"></path><path d="M121.135 22.5L121.135 29.5" stroke="var(--color-main)" stroke-width="3" stroke-miterlimit="10"></path><path d="M117.027 24.5L117.027 27.5" stroke="var(--color-main)" stroke-width="3" stroke-miterlimit="10"></path><path d="M112.919 22.5L112.919 29.5" stroke="var(--color-main)" stroke-width="3" stroke-miterlimit="10"></path><path d="M108.811 18L108.811 34" stroke="var(--color-main)" stroke-width="3" stroke-miterlimit="10"></path><path d="M104.703 11.5L104.703 40.5" stroke="var(--color-main)" stroke-width="3" stroke-miterlimit="10"></path><path d="M100.595 19.5L100.595 32.5" stroke="var(--color-main)" stroke-width="3" stroke-miterlimit="10"></path><path d="M96.4863 22.5L96.4863 29.5" stroke="var(--color-main)" stroke-width="3" stroke-miterlimit="10"></path><path d="M92.3784 24.5L92.3784 27.5" stroke="var(--color-main)" stroke-width="3" stroke-miterlimit="10"></path><path d="M88.2705 18L88.2705 34" stroke="var(--color-main)" stroke-width="3" stroke-miterlimit="10"></path><path d="M84.1621 22.5L84.1621 29.5" stroke="var(--color-main)" stroke-width="3" stroke-miterlimit="10"></path><path d="M80.0542 22.5L80.0542 29.5" stroke="var(--color-main)" stroke-width="3" stroke-miterlimit="10"></path><path d="M75.9458 21L75.9458 31" stroke="var(--color-main)" stroke-width="3" stroke-miterlimit="10"></path><path d="M71.8379 27.5L71.8379 24.5" stroke="var(--color-main)" stroke-width="3" stroke-miterlimit="10"></path><path d="M67.7295 21L67.7295 31" stroke="var(--color-main)" stroke-width="3" stroke-miterlimit="10"></path><path d="M63.6216 11.5L63.6216 40.5" stroke="var(--color-main)" stroke-width="3" stroke-miterlimit="10"></path><path d="M59.5137 8L59.5137 44" stroke="var(--color-main)" stroke-width="3" stroke-miterlimit="10"></path><path d="M55.4053 -1.54972e-06L55.4053 52" stroke="var(--color-main)" stroke-width="3" stroke-miterlimit="10"></path><path d="M51.2974 8L51.2974 44" stroke="var(--color-main)" stroke-width="3" stroke-miterlimit="10"></path><path d="M47.189 39L47.189 13" stroke="var(--color-main)" stroke-width="3" stroke-miterlimit="10"></path><path d="M43.0811 36L43.0811 16" stroke="var(--color-main)" stroke-width="3" stroke-miterlimit="10"></path><path d="M38.9731 32.5L38.9731 19.5" stroke="var(--color-main)" stroke-width="3" stroke-miterlimit="10"></path><path d="M34.8647 24.5L34.8647 27.5" stroke="var(--color-main)" stroke-width="3" stroke-miterlimit="10"></path><path d="M30.7568 24.5L30.7568 27.5" stroke="var(--color-main)" stroke-width="3" stroke-miterlimit="10"></path><path d="M26.6484 21L26.6484 31" stroke="var(--color-main)" stroke-width="3" stroke-miterlimit="10"></path><path d="M22.5405 14.5L22.5405 37.5" stroke="var(--color-main)" stroke-width="3" stroke-miterlimit="10"></path><path d="M18.4326 19.5L18.4326 32.5" stroke="var(--color-main)" stroke-width="3" stroke-miterlimit="10"></path><path d="M14.3242 18L14.3242 34" stroke="var(--color-main)" stroke-width="3" stroke-miterlimit="10"></path><path d="M10.2163 11.5L10.2163 40.5" stroke="var(--color-main)" stroke-width="3" stroke-miterlimit="10"></path><path d="M6.10791 13L6.10791 39" stroke="var(--color-main)" stroke-width="3" stroke-miterlimit="10"></path><path d="M2 14.5L2 37.5" stroke="var(--color-main)" stroke-width="3" stroke-miterlimit="10"></path></g><defs><clipPath id="clip0_2524_342596"><rect width="156" height="52" fill="white"></rect></clipPath></defs></svg>