<svg width="156" height="52" viewBox="0 0 156 52" fill="none" xmlns="http://www.w3.org/2000/svg" style="--color-main:#FF4C45; --color-secondary:#FFFFFF; max-width: 100%; max-height: 100%;"><path d="M1 52V41.9355" stroke="var(--color-main)" stroke-width="1.5" stroke-miterlimit="10"></path><path d="M5.13477 52V30.1935" stroke="var(--color-main)" stroke-width="1.5" stroke-miterlimit="10"></path><path d="M9.27002 52V5.03226" stroke="var(--color-main)" stroke-width="1.5" stroke-miterlimit="10"></path><path d="M13.4048 52V41.9355" stroke="var(--color-main)" stroke-width="1.5" stroke-miterlimit="10"></path><path d="M17.5396 52V20.129" stroke="var(--color-main)" stroke-width="1.5" stroke-miterlimit="10"></path><path d="M21.6743 52V13.4194" stroke="var(--color-main)" stroke-width="1.5" stroke-miterlimit="10"></path><path d="M25.8096 52V0" stroke="var(--color-main)" stroke-width="1.5" stroke-miterlimit="10"></path><path d="M29.9443 52V13.4194" stroke="var(--color-main)" stroke-width="1.5" stroke-miterlimit="10"></path><path d="M34.0791 25.1613V52" stroke="var(--color-main)" stroke-width="1.5" stroke-miterlimit="10"></path><path d="M38.2139 31.871V52" stroke="var(--color-main)" stroke-width="1.5" stroke-miterlimit="10"></path><path d="M42.3491 38.5806V52" stroke="var(--color-main)" stroke-width="1.5" stroke-miterlimit="10"></path><path d="M46.4839 52V48.6452" stroke="var(--color-main)" stroke-width="1.5" stroke-miterlimit="10"></path><path d="M50.6187 52V41.9355" stroke="var(--color-main)" stroke-width="1.5" stroke-miterlimit="10"></path><path d="M54.7539 52V30.1935" stroke="var(--color-main)" stroke-width="1.5" stroke-miterlimit="10"></path><path d="M58.8887 52V40.2581" stroke="var(--color-main)" stroke-width="1.5" stroke-miterlimit="10"></path><path d="M63.0234 52V33.5484" stroke="var(--color-main)" stroke-width="1.5" stroke-miterlimit="10"></path><path d="M67.1582 52V20.129" stroke="var(--color-main)" stroke-width="1.5" stroke-miterlimit="10"></path><path d="M71.2935 52V25.1613" stroke="var(--color-main)" stroke-width="1.5" stroke-miterlimit="10"></path><path d="M75.4282 52V30.1935" stroke="var(--color-main)" stroke-width="1.5" stroke-miterlimit="10"></path><path d="M79.563 52V41.9355" stroke="var(--color-main)" stroke-width="1.5" stroke-miterlimit="10"></path><path d="M83.6978 52V25.1613" stroke="var(--color-main)" stroke-width="1.5" stroke-miterlimit="10"></path><path d="M87.833 52V0" stroke="var(--color-main)" stroke-width="1.5" stroke-miterlimit="10"></path><path d="M91.9678 52V25.1613" stroke="var(--color-main)" stroke-width="1.5" stroke-miterlimit="10"></path><path d="M96.1025 52V48.6452" stroke="var(--color-main)" stroke-width="1.5" stroke-miterlimit="10"></path><path d="M100.237 50.3226V52" stroke="var(--color-main)" stroke-width="1.5" stroke-miterlimit="10"></path><path d="M104.373 48.6452V52" stroke="var(--color-main)" stroke-width="1.5" stroke-miterlimit="10"></path><path d="M108.507 52V46.9677" stroke="var(--color-main)" stroke-width="1.5" stroke-miterlimit="10"></path><path d="M112.642 48.6452V52" stroke="var(--color-main)" stroke-width="1.5" stroke-miterlimit="10"></path><path d="M116.777 50.3226V52" stroke="var(--color-main)" stroke-width="1.5" stroke-miterlimit="10"></path><path d="M120.912 52V41.9355" stroke="var(--color-main)" stroke-width="1.5" stroke-miterlimit="10"></path><path d="M125.047 52V30.1935" stroke="var(--color-main)" stroke-width="1.5" stroke-miterlimit="10"></path><path d="M129.182 52V40.2581" stroke="var(--color-main)" stroke-width="1.5" stroke-miterlimit="10"></path><path d="M133.317 52V33.5484" stroke="var(--color-main)" stroke-width="1.5" stroke-miterlimit="10"></path><path d="M137.452 52V20.129" stroke="var(--color-main)" stroke-width="1.5" stroke-miterlimit="10"></path><path d="M141.586 52V25.1613" stroke="var(--color-main)" stroke-width="1.5" stroke-miterlimit="10"></path><path d="M145.721 52V13.4194" stroke="var(--color-main)" stroke-width="1.5" stroke-miterlimit="10"></path><path d="M149.856 52V0" stroke="var(--color-main)" stroke-width="1.5" stroke-miterlimit="10"></path><path d="M153.991 52V25.1613" stroke="var(--color-main)" stroke-width="1.5" stroke-miterlimit="10"></path></svg>