<svg width="156" height="52" viewBox="0 0 156 52" fill="none" xmlns="http://www.w3.org/2000/svg" style="--color-main:#A46CFF; --color-secondary:#FFFFFF; max-width: 100%; max-height: 100%;"><path d="M1 31.0323V20.9677" stroke="var(--color-main)" stroke-width="1.5" stroke-miterlimit="10"></path><path d="M5.13477 36.9032V15.0968" stroke="var(--color-main)" stroke-width="1.5" stroke-miterlimit="10"></path><path d="M9.27002 49.4839V2.51614" stroke="var(--color-main)" stroke-width="1.5" stroke-miterlimit="10"></path><path d="M13.4048 31.0323V20.9677" stroke="var(--color-main)" stroke-width="1.5" stroke-miterlimit="10"></path><path d="M17.5396 41.9355V10.0645" stroke="var(--color-main)" stroke-width="1.5" stroke-miterlimit="10"></path><path d="M21.6743 45.2903V6.70969" stroke="var(--color-main)" stroke-width="1.5" stroke-miterlimit="10"></path><path d="M25.8096 52V0" stroke="var(--color-main)" stroke-width="1.5" stroke-miterlimit="10"></path><path d="M29.9443 45.2903V6.70969" stroke="var(--color-main)" stroke-width="1.5" stroke-miterlimit="10"></path><path d="M34.0791 12.5807V39.4194" stroke="var(--color-main)" stroke-width="1.5" stroke-miterlimit="10"></path><path d="M38.2139 15.9355V36.0645" stroke="var(--color-main)" stroke-width="1.5" stroke-miterlimit="10"></path><path d="M42.3491 19.2903V32.7097" stroke="var(--color-main)" stroke-width="1.5" stroke-miterlimit="10"></path><path d="M46.4839 27.6774V24.3226" stroke="var(--color-main)" stroke-width="1.5" stroke-miterlimit="10"></path><path d="M50.6187 31.0323V20.9677" stroke="var(--color-main)" stroke-width="1.5" stroke-miterlimit="10"></path><path d="M54.7539 36.9032V15.0968" stroke="var(--color-main)" stroke-width="1.5" stroke-miterlimit="10"></path><path d="M58.8887 31.871V20.129" stroke="var(--color-main)" stroke-width="1.5" stroke-miterlimit="10"></path><path d="M63.0234 35.2258V16.7742" stroke="var(--color-main)" stroke-width="1.5" stroke-miterlimit="10"></path><path d="M67.1582 41.9355V10.0645" stroke="var(--color-main)" stroke-width="1.5" stroke-miterlimit="10"></path><path d="M71.2935 39.4194V12.5807" stroke="var(--color-main)" stroke-width="1.5" stroke-miterlimit="10"></path><path d="M75.4282 36.9032V15.0968" stroke="var(--color-main)" stroke-width="1.5" stroke-miterlimit="10"></path><path d="M79.563 31.0323V20.9677" stroke="var(--color-main)" stroke-width="1.5" stroke-miterlimit="10"></path><path d="M83.6978 39.4194V12.5807" stroke="var(--color-main)" stroke-width="1.5" stroke-miterlimit="10"></path><path d="M87.833 52V0" stroke="var(--color-main)" stroke-width="1.5" stroke-miterlimit="10"></path><path d="M91.9678 39.4194V12.5807" stroke="var(--color-main)" stroke-width="1.5" stroke-miterlimit="10"></path><path d="M96.1025 27.6774V24.3226" stroke="var(--color-main)" stroke-width="1.5" stroke-miterlimit="10"></path><path d="M100.237 25.1613V26.8387" stroke="var(--color-main)" stroke-width="1.5" stroke-miterlimit="10"></path><path d="M104.373 24.3226V27.6774" stroke="var(--color-main)" stroke-width="1.5" stroke-miterlimit="10"></path><path d="M108.507 28.5161V23.4839" stroke="var(--color-main)" stroke-width="1.5" stroke-miterlimit="10"></path><path d="M112.642 24.3226V27.6774" stroke="var(--color-main)" stroke-width="1.5" stroke-miterlimit="10"></path><path d="M116.777 25.1613V26.8387" stroke="var(--color-main)" stroke-width="1.5" stroke-miterlimit="10"></path><path d="M120.912 31.0323V20.9677" stroke="var(--color-main)" stroke-width="1.5" stroke-miterlimit="10"></path><path d="M125.047 36.9032V15.0968" stroke="var(--color-main)" stroke-width="1.5" stroke-miterlimit="10"></path><path d="M129.182 31.871V20.129" stroke="var(--color-main)" stroke-width="1.5" stroke-miterlimit="10"></path><path d="M133.317 35.2258V16.7742" stroke="var(--color-main)" stroke-width="1.5" stroke-miterlimit="10"></path><path d="M137.452 41.9355V10.0645" stroke="var(--color-main)" stroke-width="1.5" stroke-miterlimit="10"></path><path d="M141.586 39.4194V12.5807" stroke="var(--color-main)" stroke-width="1.5" stroke-miterlimit="10"></path><path d="M145.721 45.2903V6.70969" stroke="var(--color-main)" stroke-width="1.5" stroke-miterlimit="10"></path><path d="M149.856 52V0" stroke="var(--color-main)" stroke-width="1.5" stroke-miterlimit="10"></path><path d="M153.991 39.4194V12.5807" stroke="var(--color-main)" stroke-width="1.5" stroke-miterlimit="10"></path></svg>